<svg xmlns="http://www.w3.org/2000/svg" 
    xmlns:xlink="http://www.w3.org/1999/xlink" viewBox="0 0 1680.45 1250">
    <defs>
        <style>.cls-1,.cls-2,.cls-3{fill-rule:evenodd;}.cls-1{fill:url(#linear-gradient);}.cls-2{fill:#fff;}.cls-3,.cls-4{fill:#fdcb6e;}</style>
        <linearGradient id="linear-gradient" x1="454.89" y1="1306.66" x2="1163.61" y2="-12.68" gradientUnits="userSpaceOnUse">
            <stop offset="0" stop-color="#fcf0c7"/>
            <stop offset="0.03" stop-color="#fbeab9"/>
            <stop offset="0.08" stop-color="#fae1a3"/>
            <stop offset="0.14" stop-color="#f9da92"/>
            <stop offset="0.22" stop-color="#f8d687"/>
            <stop offset="0.32" stop-color="#f8d380"/>
            <stop offset="0.62" stop-color="#f8d27e"/>
            <stop offset="0.65" stop-color="#f8d07a"/>
            <stop offset="0.68" stop-color="#f7ca6d"/>
            <stop offset="0.71" stop-color="#f6c059"/>
            <stop offset="0.71" stop-color="#f6c058"/>
        </linearGradient>
    </defs>
    <title>Asset 1</title>
    <g id="Layer_2" data-name="Layer 2">
        <g id="Layer_1-2" data-name="Layer 1">
            <path id="Rectangle_1_copy_3" data-name="Rectangle 1 copy 3" class="cls-1" d="M958.37,0l262.28,70.2S978.29,426.34,978.43,426.43c.75.48,119.26,31.66,119.74,32.05.09.08-75.25,103.21-76.4,102.82-123.23-41.81-163.23-47.51-211.18-64.49-39.5-14-81.27-29-81.22-72.22ZM878.45,753.53c-11.84,15.86-19,25.47-19,25.5-.45.44,68.29,18.4,68.42,18.31,1.11-.68-465.65,467.35-468.2,469.67-2.21,2,250.63-436.33,251.43-436.15.2,0-85.61-23.13-85.53-22.89s32.3-50.14,69.39-108.41"/>
            <path class="cls-2" d="M868.35,1107.83c199.31,0,339.22-102.84,339.22-286.12v-2.63c0-160.86-105.59-228.1-293-276.89-159.71-40.87-199.3-60.65-199.3-121.3v-2.64c0-23.4,13.07-46.2,32.9-58.92-.54.35,108-200.52,107.9-200.53-8.24-.59-12.87-.3-19.37-.3-188.75,0-323.38,110.76-323.38,278.21v2.63c0,183.28,120.11,234.7,306.22,282.17,154.43,39.55,186.1,65.92,186.1,117.34v2.64c0,54.06-50.15,87-133.31,87-17.73,0-31.26-.25-51.69-3.59-.78-.13-149.85,149.5-149.15,149.75,57.63,20,130.42,33.16,196.88,33.16Z"/>
            <path class="cls-2" d="M1123.76,236.84s15.66,9.16,30.24,19.09c13.85,9.44,26.43,19.88,26.43,19.88l-106,153.42s-11.88-8.53-26.2-18.26a283.75,283.75,0,0,0-29.86-17.33Z"/>
            <path class="cls-2" d="M577.23,1032.6s-34.78-21.12-49.35-31.06c-13.85-9.43-51.79-41.4-51.79-41.4L596.73,816.46s22.85,19.49,37.16,29.22C648,855.27,671.67,870,671.67,870Z"/>
        </g>
    </g>
</svg>