<svg xmlns="http://www.w3.org/2000/svg" 
    xmlns:xlink="http://www.w3.org/1999/xlink" viewBox="0 0 1680.45 2012.8">
    <defs>
        <style>.cls-1,.cls-2,.cls-3{fill-rule:evenodd;}.cls-1{fill:url(#linear-gradient);}.cls-2{fill:#fff;}.cls-3,.cls-4{fill:#fdcb6e;}</style>
        <linearGradient id="linear-gradient" x1="454.89" y1="1306.66" x2="1163.61" y2="-12.68" gradientUnits="userSpaceOnUse">
            <stop offset="0" stop-color="#fcf0c7"/>
            <stop offset="0.03" stop-color="#fbeab9"/>
            <stop offset="0.08" stop-color="#fae1a3"/>
            <stop offset="0.14" stop-color="#f9da92"/>
            <stop offset="0.22" stop-color="#f8d687"/>
            <stop offset="0.32" stop-color="#f8d380"/>
            <stop offset="0.62" stop-color="#f8d27e"/>
            <stop offset="0.65" stop-color="#f8d07a"/>
            <stop offset="0.68" stop-color="#f7ca6d"/>
            <stop offset="0.71" stop-color="#f6c059"/>
            <stop offset="0.71" stop-color="#f6c058"/>
        </linearGradient>
    </defs>
    <title>Asset 1</title>
    <g id="Layer_2" data-name="Layer 2">
        <g id="Layer_1-2" data-name="Layer 1">
            <path id="Rectangle_1_copy_3" data-name="Rectangle 1 copy 3" class="cls-1" d="M958.37,0l262.28,70.2S978.29,426.34,978.43,426.43c.75.48,119.26,31.66,119.74,32.05.09.08-75.25,103.21-76.4,102.82-123.23-41.81-163.23-47.51-211.18-64.49-39.5-14-81.27-29-81.22-72.22ZM878.45,753.53c-11.84,15.86-19,25.47-19,25.5-.45.44,68.29,18.4,68.42,18.31,1.11-.68-465.65,467.35-468.2,469.67-2.21,2,250.63-436.33,251.43-436.15.2,0-85.61-23.13-85.53-22.89s32.3-50.14,69.39-108.41"/>
            <path class="cls-2" d="M118.8,2012c60.4,0,102.8-31.2,102.8-86.8v-.8c0-48.8-32-69.2-88.8-84-48.4-12.4-60.4-18.4-60.4-36.8v-.8c0-13.6,12.4-24.4,36-24.4s48,10.4,72.8,27.6l32-46.4c-28.4-22.8-63.2-35.6-104-35.6-57.2,0-98,33.6-98,84.4v.8c0,55.6,36.4,71.2,92.8,85.6,46.8,12,56.4,20,56.4,35.6v.8c0,16.4-15.2,26.4-40.4,26.4-32,0-58.4-13.2-83.6-34L0,1967.2C33.6,1997.2,76.4,2012,118.8,2012Z"/>
            <path class="cls-2" d="M401.8,1723.2c-86.4,0-149.2,65.2-149.2,144.8v.8c0,79.6,62,144,148.4,144s149.2-65.2,149.2-144.8v-.8C550.2,1787.6,488.2,1723.2,401.8,1723.2Zm84,145.6c0,48-34.4,87.2-84,87.2s-84.8-40-84.8-88v-.8c0-48,34.4-87.2,84-87.2s84.8,40,84.8,88Z"/>
            <path class="cls-2" d="M716.28,2012.4c75.2,0,122.8-41.6,122.8-126.4V1728h-61.6v160.4c0,44.4-22.8,67.2-60.4,67.2s-60.4-23.6-60.4-69.2V1728h-61.6v160c0,82.4,46,124.4,121.2,124.4Z"/>
            <path class="cls-2" d="M1073.48,1908c35.6-13.2,60-41.6,60-86.8v-.8c0-26.4-8.4-48.4-24-64-18.4-18.4-46-28.4-81.6-28.4h-128v280h61.6v-89.6h48.4l60,89.6h72Zm-2.4-83.6c0,23.6-17.2,39.6-47.2,39.6h-62.4v-80.4h61.2c30,0,48.4,13.6,48.4,40Z"/>
            <path class="cls-2" d="M1310.76,2012.8c54,0,86-19.2,114.79-50l-39.2-39.6c-22,20-41.6,32.8-73.59,32.8-48,0-81.2-40-81.2-88v-.8c0-48,34-87.2,81.2-87.2,28,0,50,12,71.59,31.6l39.2-45.2c-26-25.6-57.6-43.2-110.39-43.2-86,0-146,65.2-146,144.8v.8c0,80.4,61.2,144,143.6,144Z"/>
            <polygon class="cls-2" points="1465.27 2008 1678.47 2008 1678.47 1953.2 1526.47 1953.2 1526.47 1894.4 1658.47 1894.4 1658.47 1839.6 1526.47 1839.6 1526.47 1782.8 1676.47 1782.8 1676.47 1728 1465.27 1728 1465.27 2008"/>
            <path class="cls-3" d="M116,1653c54,0,92.8-31.2,92.8-76.4v-.8c0-40.8-27.2-64-92-77.2-66.4-13.6-81.6-31.6-81.6-61.2v-.8c0-29.2,27.2-52.8,68.4-52.8,30.8,0,57.2,8.8,83.6,31.6l13.2-16.4c-28.4-22.8-55.2-34-96-34-52,0-90,32-90,73.6v.8c0,42.4,27.2,65.2,94.4,78.8,63.6,12.8,79.2,30,79.2,59.6v.8c0,32-28.8,55.6-70.8,55.6-41.2,0-69.6-13.2-100.4-41.6l-13.6,15.6C36.82,1638.2,71.22,1653,116,1653Z"/>
            <polygon class="cls-3" points="400.78 1649 420.78 1649 420.78 1405.8 531.58 1567 533.18 1567 643.98 1405.8 643.98 1649 664.78 1649 664.78 1369 645.18 1369 532.78 1534.6 420.38 1369 400.78 1369 400.78 1649 400.78 1649"/>
            <rect class="cls-4" x="876.38" y="1369" width="20.8" height="280"/>
            <polygon class="cls-3" points="1178.1 1649 1198.9 1649 1198.9 1388.2 1296.49 1388.2 1296.49 1369 1080.5 1369 1080.5 1388.2 1178.1 1388.2 1178.1 1649 1178.1 1649"/>
            <polygon class="cls-3" points="1479.26 1649 1680.45 1649 1680.45 1629.8 1500.05 1629.8 1500.05 1517.4 1660.45 1517.4 1660.45 1498.2 1500.05 1498.2 1500.05 1388.2 1678.45 1388.2 1678.45 1369 1479.26 1369 1479.26 1649 1479.26 1649"/>
            <path class="cls-2" d="M868.35,1107.83c199.31,0,339.22-102.84,339.22-286.12v-2.63c0-160.86-105.59-228.1-293-276.89-159.71-40.87-199.3-60.65-199.3-121.3v-2.64c0-23.4,13.07-46.2,32.9-58.92-.54.35,108-200.52,107.9-200.53-8.24-.59-12.87-.3-19.37-.3-188.75,0-323.38,110.76-323.38,278.21v2.63c0,183.28,120.11,234.7,306.22,282.17,154.43,39.55,186.1,65.92,186.1,117.34v2.64c0,54.06-50.15,87-133.31,87-17.73,0-31.26-.25-51.69-3.59-.78-.13-149.85,149.5-149.15,149.75,57.63,20,130.42,33.16,196.88,33.16Z"/>
            <path class="cls-2" d="M1123.76,236.84s15.66,9.16,30.24,19.09c13.85,9.44,26.43,19.88,26.43,19.88l-106,153.42s-11.88-8.53-26.2-18.26a283.75,283.75,0,0,0-29.86-17.33Z"/>
            <path class="cls-2" d="M577.23,1032.6s-34.78-21.12-49.35-31.06c-13.85-9.43-51.79-41.4-51.79-41.4L596.73,816.46s22.85,19.49,37.16,29.22C648,855.27,671.67,870,671.67,870Z"/>
        </g>
    </g>
</svg>